<svg width="9.000000" height="9.000000" viewBox="0 0 9 9" fill="none" xmlns="http://www.w3.org/2000/svg" xmlns:xlink="http://www.w3.org/1999/xlink">
	<desc>
			Created with Pixso.
	</desc>
	<path d="M0.5 5C0.219971 5 0 4.78027 0 4.5C0 4.21973 0.219971 4 0.5 4L8.5 4C8.78003 4 9 4.21973 9 4.5C9 4.78027 8.78003 5 8.5 5L0.5 5Z" fill-rule="evenodd" fill="#999999"/>
	<path d="M4 0.5C4 0.219727 4.21997 0 4.5 0C4.78003 0 5 0.219727 5 0.5L5 8.5C5 8.78027 4.78003 9 4.5 9C4.21997 9 4 8.78027 4 8.5L4 0.5Z" fill-rule="evenodd" fill="#999999"/>
	<defs/>
</svg>
