<svg width="16.000000" height="16.000000" viewBox="0 0 16 16" fill="none" xmlns="http://www.w3.org/2000/svg" xmlns:xlink="http://www.w3.org/1999/xlink">
	<desc>
			Created with Pixso.
	</desc>
	<circle cx="8.000000" cy="8.000000" r="8.000000" fill="#000000"/>
	<path d="M5.08826 9.26465C4.5282 9.26465 4.08826 8.82422 4.08826 8.26465C4.08826 7.70508 4.5282 7.26465 5.08826 7.26465L11.4412 7.26465C12.0012 7.26465 12.4412 7.70508 12.4412 8.26465C12.4412 8.82422 12.0012 9.26465 11.4412 9.26465L5.08826 9.26465Z" fill-rule="evenodd" fill="#FFFFFF"/>
	<path d="M7.26465 5.08789C7.26465 4.52832 7.70459 4.08789 8.26465 4.08789C8.82471 4.08789 9.26465 4.52832 9.26465 5.08789L9.26465 11.4404C9.26465 12.001 8.82471 12.4404 8.26465 12.4404C7.70459 12.4404 7.26465 12.001 7.26465 11.4404L7.26465 5.08789Z" fill-rule="evenodd" fill="#FFFFFF"/>
	<defs/>
</svg>
