<svg width="32.000000" height="18.107910" viewBox="0 0 32 18.1079" fill="none" xmlns="http://www.w3.org/2000/svg" xmlns:xlink="http://www.w3.org/1999/xlink">
	<desc>
			Created with Pixso.
	</desc>
	<rect y="0.107910" rx="3.000000" width="32.000000" height="18.000000" fill="#999999"/>
	<path d="M13.6825 8.4917L13.6825 9.271L10.4569 9.271L10.4569 11.1313L13.6825 11.1313L13.6825 11.9253L10.4569 11.9253L10.4569 13.8794L15.1005 13.8794L15.1005 14.6968L4.96085 14.6968L4.96085 13.8794L9.54288 13.8794L9.54288 11.9253L6.46085 11.9253L6.46085 11.1313L9.54288 11.1313L9.54288 9.271L6.3876 9.271L6.3876 8.4917C5.93057 8.80518 5.45303 9.06885 4.98428 9.30908C4.85245 9.06885 4.58878 8.77881 4.36026 8.57666C6.53116 7.58057 8.71671 5.82861 9.91495 3.94482L10.7089 4.30518C10.6357 4.41064 10.5653 4.51904 10.4921 4.62744C11.9687 6.34424 13.7323 7.58057 15.6747 8.6001C15.4491 8.79053 15.1825 9.09229 15.0507 9.35596C14.5849 9.06885 14.1278 8.79053 13.6825 8.4917ZM20.415 5.47998L22.624 5.47998L22.624 6.29736L17.0078 6.29736L17.0078 5.47998L19.4922 5.47998C19.3604 5.08447 19.167 4.61572 19 4.24365L19.7793 4.01514C20.0312 4.48389 20.2715 5.07275 20.415 5.47998ZM26.585 4.7124L26.7285 4.6626L27.3408 5.07275C26.9072 6.1626 26.3564 7.53076 25.8525 8.63525C26.9189 9.76318 27.1826 10.689 27.1826 11.5269C27.1826 12.2124 27.0273 12.8013 26.6436 13.0532C26.4414 13.1968 26.1748 13.2788 25.8994 13.3052C25.6006 13.3403 25.2168 13.3403 24.8799 13.3286C24.8682 13.0884 24.7832 12.728 24.6396 12.4761C24.9883 12.5112 25.3252 12.5112 25.5654 12.4995C25.7441 12.4878 25.9111 12.4526 26.043 12.3794C26.2832 12.2241 26.3682 11.8521 26.3564 11.4448C26.3564 10.689 26.0547 9.82471 24.9883 8.73193C25.4307 7.72412 25.8994 6.45264 26.2246 5.52686L24.3174 5.52686L24.3174 15.0073L23.5117 15.0073L23.5117 4.7124L26.585 4.7124ZM9.99991 5.2749C9.02725 6.48779 7.76749 7.59229 6.42276 8.46826L13.6474 8.46826C12.329 7.58057 11.1278 6.57275 9.99991 5.2749ZM20.333 8.69678C20.6553 8.02295 21.0156 7.03857 21.209 6.36768L22.0967 6.56104C21.833 7.25537 21.4961 8.07275 21.1973 8.69678L22.8994 8.69678L22.8994 9.51123L16.6592 9.51123L16.6592 8.69678L20.333 8.69678ZM18.5078 6.40283C18.8564 7.02686 19.1787 7.86768 19.2988 8.43311L18.4844 8.64697C18.376 8.09619 18.0654 7.24365 17.7402 6.59619L18.5078 6.40283ZM18.1973 14.9487L17.3447 14.9487L17.3447 10.604L22.3369 10.604L22.3369 14.8521L21.4609 14.8521L21.4609 14.3716L18.1973 14.3716L18.1973 14.9487ZM21.4609 13.5806L21.4609 11.4067L18.1973 11.4067L18.1973 13.5806L21.4609 13.5806Z" fill="#F1F1F1"/>
	<defs/>
</svg>
