<svg width="12.026367" height="10.000000" viewBox="0 0 12.0264 10" fill="none" xmlns="http://www.w3.org/2000/svg" xmlns:xlink="http://www.w3.org/1999/xlink">
	<desc>
			Created with Pixso.
	</desc>
	<mask id="path-1-inside-1" fill="white">
		<path d="M3.93774 0L2.02539 0C0.920898 0 0.0253906 0.895508 0.0253906 2L0.0253906 7.32129C-0.00634766 7.57422 -0.010498 7.81982 0.0258789 8.04492C0.0356445 8.48877 0.189941 8.89746 0.444092 9.22461C0.789307 9.75928 1.30908 10 2.02539 10L9.02539 10C9.97266 10 10.3057 9.73389 10.6819 9.12109C10.7295 9.05078 10.7729 8.97754 10.8115 8.90088C10.8325 8.86377 10.854 8.82568 10.876 8.78662C11.3525 7.93457 12.0264 4.63818 12.0264 4.63818C12.0264 4.14258 11.6235 3.70947 11.0254 3.47803L11.0254 3.46338C11.0254 2.35889 10.1299 1.22852 9.02539 1.22852L5.06763 1.22852L3.93774 0Z" fill-rule="evenodd" fill-opacity="0.000000"/>
	</mask>
	<path d="M5.06763 1.22852L3.93774 0L2.02539 0C0.920898 0 0.0253906 0.895508 0.0253906 2L0.0253906 7.32129C-0.00634766 7.57422 -0.010498 7.81982 0.0258789 8.04492C0.0356445 8.48877 0.189941 8.89746 0.444092 9.22461C0.789307 9.75928 1.30908 10 2.02539 10L9.02539 10C9.97266 10 10.3057 9.73389 10.6819 9.12109C10.7295 9.05078 10.7729 8.97754 10.8115 8.90088C10.8325 8.86377 10.854 8.82568 10.876 8.78662C11.3525 7.93457 12.0264 4.63818 12.0264 4.63818C12.0264 4.14258 11.6235 3.70947 11.0254 3.47803L11.0254 3.46338C11.0254 2.35889 10.1299 1.22852 9.02539 1.22852L5.06763 1.22852ZM3.49854 1.00049L2.02539 1.00049Q1.02588 1.00049 1.02588 2L1.02588 7.38428L1.01807 7.44678Q0.985107 7.7085 1.01367 7.88525L1.02466 7.95361L1.02612 8.02295Q1.03345 8.35205 1.23462 8.61133L1.26099 8.64551L1.28467 8.68213Q1.4895 8.99951 2.02539 8.99951L9.02539 8.99951Q9.58252 8.99951 9.82935 8.59766L9.84106 8.57861L9.85352 8.56006Q9.88965 8.50684 9.91846 8.44971L9.92871 8.4292L10.0049 8.29443Q10.3931 7.60107 11.0122 4.60254Q10.9558 4.52393 10.6646 4.41113L10.0249 4.16357L10.0249 3.46338Q10.0249 2.98389 9.68115 2.58447Q9.37549 2.229 9.02539 2.229L4.62842 2.229L3.49854 1.00049Z" clip-rule="evenodd" fill-rule="evenodd" fill="#999999" fill-opacity="1.000000"/>
	<path d="M1.02637 4.63818C1.02637 4.63818 1.49219 3.54443 3.02637 3.29932L10.0264 3.29932C11.1309 3.29932 12.0264 3.89893 12.0264 4.63818C12.0264 4.63818 11.3528 7.93457 10.876 8.78662C10.3992 9.63867 10.1299 10 9.02539 10L2.02539 10C0.920898 10 0.282959 9.42725 0.0332031 8.08691C-0.216553 6.74658 1.02637 4.63818 1.02637 4.63818ZM3.1123 4.2998L10.0264 4.2998C10.2051 4.2998 10.3735 4.32227 10.5322 4.36719C10.6699 4.40625 10.7871 4.45801 10.884 4.52295C10.9385 4.55957 10.9795 4.59473 11.0066 4.62842C10.9058 5.10938 10.7896 5.61816 10.6582 6.15479C10.5295 6.68018 10.4099 7.12451 10.2996 7.48828C10.1758 7.896 10.0769 8.16553 10.0029 8.29785C9.80835 8.64551 9.67065 8.84912 9.58936 8.90967C9.50879 8.96973 9.3208 8.99951 9.02539 8.99951L2.02539 8.99951C1.73315 8.99951 1.52319 8.93945 1.396 8.81885C1.22705 8.65967 1.10059 8.35449 1.01685 7.90381C0.983643 7.72656 0.998779 7.48828 1.06201 7.18896C1.12231 6.90283 1.22314 6.58447 1.36426 6.2334C1.46899 5.97266 1.5896 5.71045 1.72534 5.44678C1.79175 5.31787 1.84595 5.21777 1.88818 5.14648L1.92139 5.09033L1.93921 5.04785C1.94653 5.03418 1.95581 5.01855 1.96729 5.00049C2.01709 4.92236 2.0791 4.84668 2.15381 4.77295C2.39795 4.53223 2.71729 4.37451 3.1123 4.2998Z" fill-rule="evenodd" fill="#999999"/>
	<defs/>
</svg>
