<svg width="11.000000" height="10.000000" viewBox="0 0 11 10" fill="none" xmlns="http://www.w3.org/2000/svg" xmlns:xlink="http://www.w3.org/1999/xlink">
	<desc>
			Created with Pixso.
	</desc>
	<path d="M0 2C0 0.895508 0.895508 0 2 0L3.91235 0L5.04224 1.22852L9 1.22852C10.1045 1.22852 11 2.12402 11 3.22852L11 8C11 9.10449 10.1045 10 9 10L2 10C0.895508 10 0 9.10449 0 8L0 2ZM3.47314 1.00049L2 1.00049C1.86401 1.00049 1.73438 1.02637 1.61133 1.07861C1.4917 1.12939 1.38574 1.20068 1.29321 1.29346C1.20068 1.38574 1.12915 1.4917 1.07861 1.61133C1.02661 1.73438 1.00049 1.86377 1.00049 2L1.00049 8C1.00049 8.13623 1.02661 8.26562 1.07861 8.38867C1.12915 8.5083 1.20068 8.61426 1.29321 8.70654C1.38574 8.79932 1.4917 8.87061 1.61133 8.92139C1.73438 8.97363 1.86401 8.99951 2 8.99951L9 8.99951C9.13599 8.99951 9.26562 8.97363 9.38867 8.92139C9.5083 8.87061 9.61426 8.79932 9.70679 8.70654C9.79932 8.61426 9.87085 8.5083 9.92139 8.38867C9.97339 8.26562 9.99951 8.13623 9.99951 8L9.99951 3.22852C9.99951 3.09229 9.97339 2.96289 9.92139 2.83984C9.87085 2.72021 9.79932 2.61426 9.70679 2.52197C9.61426 2.4292 9.5083 2.35791 9.38867 2.30713C9.26562 2.25488 9.13599 2.229 9 2.229L4.60327 2.229L3.47314 1.00049Z" fill-rule="evenodd" fill="#999999"/>
	<defs/>
</svg>
