<svg width="12" height="12" viewBox="0 0 12 12.4053" fill="none" xmlns="http://www.w3.org/2000/svg" xmlns:xlink="http://www.w3.org/1999/xlink">
	<desc>
			Created with Pixso.
	</desc>
	<path d="M6.17629 7.6377L5.52785 7.6377C5.42391 6.84927 5.8327 6.3432 6.20697 5.87987C6.49376 5.52483 6.76028 5.19488 6.76028 4.78223C6.76028 4.30176 6.4634 3.91699 5.897 3.91699C5.4966 3.91699 5.14309 4.1084 4.86379 4.42871L4.44778 4.0459C4.81692 3.62207 5.32864 3.30957 5.97512 3.30957C6.87942 3.30957 7.47121 3.86035 7.47121 4.7334C7.47121 5.29217 7.14612 5.69214 6.82044 6.09284C6.4608 6.5353 6.10045 6.97866 6.17629 7.6377ZM6.40871 8.95801C6.40871 9.28613 6.16848 9.50879 5.8716 9.50879C5.5845 9.50879 5.34426 9.28613 5.34426 8.95801C5.34426 8.62988 5.5845 8.38965 5.8716 8.38965C6.16848 8.38965 6.40871 8.62988 6.40871 8.95801Z" fill="#999999"/>
	<rect x="0.500000" y="0.905273" rx="3.000000" width="11.000000" height="11.000000" stroke="#999999"/>
	<defs/>
</svg>
