<svg width="16.869995" height="16.000000" viewBox="0 0 16.87 16" fill="none" xmlns="http://www.w3.org/2000/svg" xmlns:xlink="http://www.w3.org/1999/xlink">
	<desc>
			Created with Pixso.
	</desc>
	<path d="M2.10876 7C2.10876 4.2002 4.42834 2 7.38062 2C10.3329 2 12.6525 4.2002 12.6525 7C12.6525 9.7998 10.3329 12 7.38062 12C4.42834 12 2.10876 9.7998 2.10876 7ZM15.0775 15.7002C15.4993 16.0996 16.132 16.0996 16.5537 15.7002C16.9755 15.2998 16.9755 14.7002 16.5537 14.2998L13.2852 11.2002C14.234 10 14.7612 8.59961 14.7612 7C14.7612 3.09961 11.4927 0 7.38062 0C3.26855 0 0 3.09961 0 7C0 10.9004 3.26855 14 7.38062 14C9.06763 14 10.5437 13.5 11.809 12.5996L15.0775 15.7002Z" fill-rule="evenodd" fill="#CCCCCC"/>
	<defs/>
</svg>
