<svg width="32.000000" height="18.107910" viewBox="0 0 32 18.1079" fill="none" xmlns="http://www.w3.org/2000/svg" xmlns:xlink="http://www.w3.org/1999/xlink">
	<desc>
			Created with Pixso.
	</desc>
	<rect y="0.107910" rx="3.000000" width="32.000000" height="18.000000" fill="#FF5151"/>
	<path d="M17.9805 4.23193C18.5078 4.68896 19.1318 5.35986 19.4072 5.81689L18.6895 6.30908C18.4229 5.84033 17.8369 5.14307 17.3066 4.65088L17.9805 4.23193ZM6.00381 4.31689C6.63956 4.90283 7.45694 5.72021 7.84073 6.24756L7.20499 6.8833C6.83292 6.33252 6.03897 5.4917 5.39151 4.87939L6.00381 4.31689ZM20.2363 4.74756L26.8721 4.74756L26.8721 13.9292C26.8721 14.4067 26.7754 14.6353 26.4531 14.7905C26.1396 14.937 25.6357 14.9487 24.8799 14.9487C24.8447 14.7202 24.7363 14.3481 24.6279 14.1313C25.1436 14.1431 25.6475 14.1431 25.791 14.1313C25.9609 14.1313 26.0078 14.0845 26.0078 13.9292L26.0078 5.53857L20.2363 5.53857L20.2363 4.74756ZM8.76358 5.08447L15.4726 5.08447L15.4726 5.96045L13.3485 5.96045L13.3485 13.7241C13.3485 14.3247 13.205 14.6353 12.7714 14.7788C12.3407 14.937 11.5966 14.9604 10.4687 14.9604C10.4189 14.6968 10.2636 14.2515 10.1083 14.0112C10.9843 14.0493 11.8603 14.0347 12.1122 14.0229C12.3407 14.0112 12.4345 13.9409 12.4345 13.7124L12.4345 5.96045L8.76358 5.96045L8.76358 5.08447ZM23.1748 12.9067C23.1748 13.1587 23.2246 13.1968 23.4766 13.1968L24.376 13.1968C24.6279 13.1968 24.6514 13.0767 24.6865 12.1626C24.8447 12.2974 25.167 12.4028 25.3838 12.4644C25.3105 13.6157 25.085 13.9028 24.4727 13.9028L23.3799 13.9028C22.5771 13.9028 22.3838 13.689 22.3838 12.9067L22.3838 10.9292L21.4961 10.9292C21.291 12.4761 20.7637 13.5688 19.1201 14.228C19.0234 14.0347 18.7832 13.7124 18.6162 13.5688C20.0693 13.0649 20.5117 12.1772 20.6934 10.9292L19.3604 10.9292L19.3604 8.03467L20.7637 8.03467C20.5967 7.58057 20.2012 6.94482 19.8027 6.46436L20.5 6.13916C20.9189 6.61963 21.3408 7.26709 21.5078 7.72412L20.8721 8.03467L22.2871 8.03467C22.6826 7.48389 23.1396 6.68115 23.3916 6.104L24.2441 6.3208C23.9189 6.90674 23.5352 7.53076 23.2012 8.03467L24.5928 8.03467L24.5928 10.9292L23.1748 10.9292L23.1748 12.9067ZM18.0039 15.0308L17.1279 15.0308L17.1279 6.76318L18.0039 6.76318L18.0039 15.0308ZM7.52725 7.8208L7.52725 12.8716L9.26749 11.7202C9.32901 11.9604 9.43448 12.3325 9.53116 12.5112C7.03506 14.2515 6.67471 14.4917 6.48428 14.7319C6.39932 14.5151 6.18253 14.1665 6.02725 13.9761C6.25577 13.8325 6.66299 13.4722 6.66299 12.9448L6.66299 8.67334L4.63565 8.67334L4.63565 7.8208L7.52725 7.8208ZM23.752 8.77881L20.1514 8.77881L20.1514 10.1968L23.752 10.1968L23.752 8.77881Z" fill="#F1F1F1"/>
	<defs/>
</svg>
