<svg xmlns="http://www.w3.org/2000/svg" width="40" height="40" viewBox="0 0 40 40"><g transform="translate(11264 8788)"><path d="M20,0A20,20,0,1,0,40,20,20,20,0,0,0,20,0Z" transform="translate(-11264 -8788)" fill="#1dcf9d"/><path d="M261.4,323.921l-4.719-4.342a2.049,2.049,0,0,1,0-3.07,2.507,2.507,0,0,1,3.337,0l3.051,2.807,12.49-11.49a2.507,2.507,0,0,1,3.337,0,2.05,2.05,0,0,1,0,3.07L264.739,323.92A2.507,2.507,0,0,1,261.4,323.921Z" transform="translate(-11511.789 -9083.874)" fill="#fff"/></g></svg>