<svg xmlns="http://www.w3.org/2000/svg" width="40" height="40" viewBox="0 0 40 40"><g transform="translate(0.011)"><circle cx="20" cy="20" r="20" transform="translate(-0.011)" fill="#ec6464"/><g transform="translate(11.989 12.428)"><path d="M23.508,1H0A1,1,0,0,1-1,0,1,1,0,0,1,0-1H23.508a1,1,0,0,1,1,1A1,1,0,0,1,23.508,1Z" transform="translate(0 0) rotate(45)" fill="#fff"/><path d="M0,24.508a1,1,0,0,1-1-1V0A1,1,0,0,1,0-1,1,1,0,0,1,1,0V23.508A1,1,0,0,1,0,24.508Z" transform="translate(16.623 0) rotate(45)" fill="#fff"/></g></g></svg>