<svg width="15.000000" height="13.077637" viewBox="0 0 15 13.0776" fill="none" xmlns="http://www.w3.org/2000/svg" xmlns:xlink="http://www.w3.org/1999/xlink">
	<desc>
			Created with Pixso.
	</desc>
	<path d="M12 3.07764C13.6567 3.07764 15 4.4209 15 6.07764L15 10.0776C15 11.7344 13.6567 13.0776 12 13.0776L5 13.0776L5 3.07764L12 3.07764ZM12 4.07764C13.1045 4.07764 14 4.97314 14 6.07764L14 10.0776C14 11.1821 13.1045 12.0776 12 12.0776L6 12.0776L6 4.07764L12 4.07764Z" fill-rule="evenodd" fill="#999999"/>
	<path d="M3 0.0776367L8 0.0776367L8 10.0776L3 10.0776C1.34326 10.0776 0 8.73438 0 7.07764L0 3.07764C0 1.4209 1.34326 0.0776367 3 0.0776367Z" fill-rule="evenodd" fill="#999999"/>
	<path d="M10 5.14844C10.1802 5.43115 10.3838 5.81494 10.4673 6.06689L9.98242 6.22217C9.91064 5.97607 9.71729 5.57471 9.53857 5.28027L10 5.14844ZM12.6997 6.23535L12.6997 6.67334L11.7578 6.67334C11.4165 7.62109 10.9536 8.37695 10.3545 8.99512C11.0137 9.55322 11.8237 9.97803 12.7773 10.2124C12.6704 10.3149 12.5444 10.501 12.4727 10.627C11.4941 10.3501 10.6782 9.91211 10.0117 9.31299C9.33936 9.90039 8.51172 10.3325 7.51562 10.6504C7.46143 10.542 7.32959 10.3384 7.24023 10.2373C8.23047 9.95459 9.03467 9.54736 9.68799 8.99512C9.06982 8.35938 8.59668 7.57861 8.24805 6.67334L7.32373 6.67334L7.32373 6.23535L12.6997 6.23535ZM10.0176 8.68311C10.5522 8.14258 10.9536 7.4834 11.2539 6.67334L8.70947 6.67334C9.02148 7.43506 9.45361 8.11914 10.0176 8.68311Z" fill="#999999"/>
	<path d="M5.20361 7.0542L2.60059 7.0542L2.60059 2.65674L5.1377 2.65674L5.1377 3.12402L3.15869 3.12402L3.15869 4.50391L4.82568 4.50391L4.82568 4.97852L3.15869 4.97852L3.15869 6.57959L5.20361 6.57959L5.20361 7.0542Z" fill="#FFFFFF"/>
	<path d="M4.95703 13.0757L8 9.79639L4.95703 9.79639L4.95703 13.0757Z" fill-rule="evenodd" fill="#999999"/>
	<defs/>
</svg>
